<svg version="1.2" xmlns="http://www.w3.org/2000/svg" viewBox="0 0 1686 306" width="331" height="60">
	<title>Nytt projekt</title>
	<style>
		.s0 { fill: #ffffff } 
	</style>
	<path id="AURORADVENTURES" class="s0" aria-label="AURORADVENTURES"  d="m115.1 253h27.2l-38.1-105.3h-29.7l-38.1 105.3h26.9l6.3-18.6h39.3zm-12.9-38.4h-26l12.9-38.5zm51.1-4.1c0 29.1 19.1 43.5 43.6 43.5 24.2 0 44.6-14.4 44.6-43.5v-62.8h-25.6v63c0 12.4-6.4 19.6-18.6 19.6-12.2 0-18.3-7.2-18.3-19.6v-63h-25.7zm161.9-28.7c0 8.3-4.5 13.2-14.1 13.2h-15.9v-26.1h15.9c9.6 0 14.1 5.1 14.1 12.9zm-55.6-34.2v105.3h25.6v-39.8l6.2 0.1 21.9 39.7h28.9l-24.3-41.7c16.2-4.8 23.4-17.2 23.4-30.4 0-18.3-12.9-33.2-38.7-33.2zm201.5 52.4c0-31.7-23.9-53.9-53.9-53.9-29.8 0-54.1 22.2-54.1 53.9 0 31.6 24.3 54 54.1 54 29.9 0 53.9-22.4 53.9-54zm-81.8 0c0-18.8 10.8-30.7 27.9-30.7 16.8 0 27.8 11.9 27.8 30.7 0 18.4-11 30.6-27.8 30.6-17.1 0-27.9-12.2-27.9-30.6zm151.7-18.2c0 8.3-4.5 13.2-14.1 13.2h-15.9v-26.1h15.9c9.6 0 14.1 5.1 14.1 12.9zm-55.7-34.2v105.3h25.7v-39.7h6.1l21.9 39.7h29l-24.3-41.7c16.2-4.8 23.3-17.2 23.3-30.4 0-18.3-12.8-33.2-38.6-33.2zm250.7 105.3h54.4l-76.3-210.6h-59.3l-76.3 210.6h53.8l12.6-37.2h78.6zm-25.8-76.8h-51.9l25.8-77.1zm133.3-28.5h-39.4v105.3h39.4c33.6 0 55.2-21.4 55.2-52.6 0-31.4-21.6-52.7-55.2-52.7zm-13.8 83.1v-61.2h12.2c19.3 0 30.7 11.4 30.7 30.8 0 19.3-11.4 30.4-30.7 30.4zm128.8-3.6l-26.1-79.5h-27.3l37.4 105.3h32l37.4-105.3h-27.1zm128.5-79.5h-64.5v105.3h64.5v-20.5h-38.8v-23.1h34.3v-19.8h-34.3v-21.3h38.8zm85.2 0v65.2l-42.9-65.2h-25.7v105.3h25.7v-65l42.9 65h25.6v-105.3zm38.6 20.5h27.9v84.8h25.7v-84.8h27.8v-20.5h-81.4zm93.9 42.3c0 29.1 19.1 43.5 43.5 43.5 24.3 0 44.7-14.4 44.7-43.5v-62.9h-25.6v63c0 12.5-6.5 19.7-18.6 19.7-12.2 0-18.3-7.2-18.3-19.7v-63h-25.7zm161.9-28.6c0 8.2-4.5 13.2-14.1 13.2h-15.9v-26.1h15.9c9.6 0 14.1 5.1 14.1 12.9zm-55.7-34.2v105.3h25.7v-39.8h6.1l21.9 39.8h29l-24.3-41.7c16.2-4.8 23.4-17.3 23.4-30.5 0-18.3-12.9-33.1-38.7-33.1zm162.3 0h-64.6v105.3h64.5v-20.6h-38.8v-23.1h34.3v-19.8h-34.3v-21.3h38.8zm93.2 74c0-35.3-52-27-52-45.3 0-6.6 4.6-9.8 10.8-9.6 6.9 0.1 11.7 4.2 12.1 10.9h27.8c-1.1-20.1-16.5-31.5-39.5-31.5-22 0-38.4 11.1-38.4 31.1-0.3 37.3 52.4 26.8 52.4 46.3 0 6.2-4.8 9.9-12.3 9.9-7.2 0-12.3-3.9-13.1-12h-27.3c0.8 21.3 18.5 32.6 41.1 32.6 24.6 0 38.4-14.7 38.4-32.4z"/>
</svg>